<?xml version="1.0" encoding="UTF-8"?>
<svg width="145px" height="40px" viewBox="0 0 145 40" version="1.1" xmlns="http://www.w3.org/2000/svg" xmlns:xlink="http://www.w3.org/1999/xlink">
    <!-- Generator: Sketch 48.2 (47327) - http://www.bohemiancoding.com/sketch -->
    <title>marca / logotipoFH / horizontal</title>
    <desc>Created with Sketch.</desc>
    <defs>
        <linearGradient x1="90.4239496%" y1="0.568186888%" x2="12.1226891%" y2="97.5935739%" id="linearGradient-1">
            <stop stop-color="#171847" offset="0%"></stop>
            <stop stop-color="#1B2054" offset="3.034025%"></stop>
            <stop stop-color="#253370" offset="11.08%"></stop>
            <stop stop-color="#2D4387" offset="20.18%"></stop>
            <stop stop-color="#334E98" offset="30.62%"></stop>
            <stop stop-color="#3757A5" offset="43.21%"></stop>
            <stop stop-color="#395CAC" offset="60.14%"></stop>
            <stop stop-color="#3A5DAE" offset="100%"></stop>
        </linearGradient>
        <linearGradient x1="6.42964172%" y1="5.59233227%" x2="94.9315434%" y2="97.7795527%" id="linearGradient-2">
            <stop stop-color="#171847" offset="0%"></stop>
            <stop stop-color="#1B2054" offset="3.034025%"></stop>
            <stop stop-color="#253370" offset="11.08%"></stop>
            <stop stop-color="#2D4387" offset="20.18%"></stop>
            <stop stop-color="#334E98" offset="30.62%"></stop>
            <stop stop-color="#3757A5" offset="43.21%"></stop>
            <stop stop-color="#395CAC" offset="60.14%"></stop>
            <stop stop-color="#3A5DAE" offset="100%"></stop>
        </linearGradient>
        <linearGradient x1="-1.97088489%" y1="95.1319906%" x2="106.823529%" y2="7.43958172%" id="linearGradient-3">
            <stop stop-color="#171847" offset="0%"></stop>
            <stop stop-color="#1B2054" offset="3.034025%"></stop>
            <stop stop-color="#253370" offset="11.08%"></stop>
            <stop stop-color="#2D4387" offset="20.18%"></stop>
            <stop stop-color="#334E98" offset="30.62%"></stop>
            <stop stop-color="#3757A5" offset="43.21%"></stop>
            <stop stop-color="#395CAC" offset="60.14%"></stop>
            <stop stop-color="#3A5DAE" offset="100%"></stop>
        </linearGradient>
        <linearGradient x1="18.5248591%" y1="-0.966447455%" x2="84.2598786%" y2="97.7607799%" id="linearGradient-4">
            <stop stop-color="#3A5DAE" offset="0%"></stop>
            <stop stop-color="#395CAC" offset="39.86%"></stop>
            <stop stop-color="#3757A5" offset="56.79%"></stop>
            <stop stop-color="#334E98" offset="69.38%"></stop>
            <stop stop-color="#2D4387" offset="79.82%"></stop>
            <stop stop-color="#253370" offset="88.92%"></stop>
            <stop stop-color="#1B2054" offset="96.97%"></stop>
            <stop stop-color="#171847" offset="100%"></stop>
        </linearGradient>
        <linearGradient x1="-1.07686084%" y1="71.2265186%" x2="100.126214%" y2="26.3791322%" id="linearGradient-5">
            <stop stop-color="#3A5DAE" offset="0%"></stop>
            <stop stop-color="#395CAC" offset="39.86%"></stop>
            <stop stop-color="#3757A5" offset="56.79%"></stop>
            <stop stop-color="#334E98" offset="69.38%"></stop>
            <stop stop-color="#2D4387" offset="79.82%"></stop>
            <stop stop-color="#253370" offset="88.92%"></stop>
            <stop stop-color="#1B2054" offset="96.97%"></stop>
            <stop stop-color="#171847" offset="100%"></stop>
        </linearGradient>
    </defs>
    <g id="navigation-/-menu-/-corporativo-/-desktop-/-1440" stroke="none" stroke-width="1" fill="none" fill-rule="evenodd" transform="translate(-90.000000, -20.000000)">
        <g id="nav-/-menu-/-corporativo-/-desktop-/-1440">
            <g id="marca-/-logotipoFH-/-horizontal" transform="translate(72.000000, 20.000000)">
                <g transform="translate(18.000000, 0.000000)" id="Group">
                    <g transform="translate(46.528368, 1.987578)" fill="#FFFFFF" fill-rule="nonzero">
                        <g transform="translate(0.254253, 0.000000)" id="Shape">
                            <polygon points="0 0.596273292 9.96673236 0.596273292 9.96673236 4.34782609 5.28847023 4.34782609 5.28847023 6.63354037 9.76332966 6.63354037 9.76332966 10.3850932 5.28847023 10.3850932 5.28847023 16.3229814 0 16.3229814"></polygon>
                            <path d="M11.7210807,3.70186335 C11.899058,3.35403727 12.1278861,2.95652174 12.4584154,2.55900621 C12.7889448,2.16149068 13.2211756,1.78881988 13.7296823,1.44099379 C14.2381891,1.0931677 14.8738225,0.819875776 15.6111573,0.596273292 C16.3484921,0.372670807 17.1875283,0.248447205 18.1536911,0.248447205 C19.1198539,0.248447205 19.9588901,0.372670807 20.6962248,0.596273292 C21.4335596,0.819875776 22.0437677,1.11801242 22.5776998,1.44099379 C23.0862066,1.78881988 23.5184373,2.16149068 23.8489667,2.55900621 C24.1794961,2.95652174 24.4337495,3.35403727 24.5863015,3.70186335 L24.5863015,13.2173913 C24.4083241,13.5652174 24.1794961,13.9627329 23.8489667,14.3602484 C23.5184373,14.757764 23.0862066,15.1304348 22.5776998,15.4782609 C22.0691931,15.826087 21.4335596,16.0993789 20.6962248,16.3229814 C19.9588901,16.5465839 19.1198539,16.6708075 18.1536911,16.6708075 C17.1875283,16.6708075 16.3484921,16.5465839 15.6111573,16.3229814 C14.8738225,16.0993789 14.2636144,15.826087 13.7296823,15.4782609 C13.2211756,15.1304348 12.7889448,14.757764 12.4584154,14.3602484 C12.1278861,13.9627329 11.8736327,13.5652174 11.7210807,13.2173913 L11.7210807,3.70186335 Z M17.0095509,12.2981366 C17.0858269,12.447205 17.2129536,12.5714286 17.4163563,12.6708075 C17.619759,12.7701863 17.848587,12.8198758 18.1536911,12.8198758 C18.4587951,12.8198758 18.7130485,12.7701863 18.8910259,12.6708075 C19.0944286,12.5714286 19.2215553,12.447205 19.2978313,12.2981366 L19.2978313,4.62111801 C19.2215553,4.47204969 19.0944286,4.34782609 18.8910259,4.2484472 C18.6876232,4.14906832 18.4587951,4.09937888 18.1536911,4.09937888 C17.848587,4.09937888 17.5943337,4.14906832 17.4163563,4.2484472 C17.2129536,4.34782609 17.0858269,4.47204969 17.0095509,4.62111801 L17.0095509,12.2981366 Z"></path>
                            <path d="M26.2643738,11.1304348 L31.3494413,11.1304348 L31.3494413,12.2981366 C31.5274187,12.6459627 31.9087987,12.8198758 32.4935815,12.8198758 C33.0275136,12.8198758 33.4088937,12.6459627 33.6377217,12.2981366 L33.6377217,11.0062112 C33.510595,10.757764 33.1800656,10.5838509 32.6207082,10.4596273 L31.8833734,10.3354037 C30.9426359,10.1614907 30.1544505,9.96273292 29.518817,9.73913043 C28.8831836,9.51552795 28.3238261,9.26708075 27.8915954,8.99378882 C27.4593647,8.72049689 27.1034099,8.47204969 26.8491566,8.19875776 C26.5949032,7.92546584 26.3915005,7.67701863 26.2389485,7.40372671 L26.2389485,3.27950311 C26.3660751,3.0310559 26.5949032,2.73291925 26.9000072,2.36024845 C27.2051113,2.01242236 27.6119167,1.66459627 28.0949981,1.36645963 C28.6035049,1.04347826 29.213713,0.770186335 29.9256224,0.546583851 C30.6375319,0.322981366 31.476568,0.198757764 32.4427308,0.198757764 C33.4088937,0.198757764 34.2479298,0.322981366 34.9598393,0.546583851 C35.6717487,0.770186335 36.2819568,1.04347826 36.7904636,1.36645963 C37.2989703,1.68944099 37.7057757,2.01242236 38.0108798,2.36024845 C38.3159838,2.70807453 38.5448119,3.00621118 38.6719386,3.27950311 L38.6719386,5.68944099 L33.586871,5.68944099 L33.586871,4.62111801 C33.434319,4.27329193 33.0529389,4.09937888 32.4427308,4.09937888 C32.1376268,4.09937888 31.8833734,4.14906832 31.705396,4.2484472 C31.5019933,4.34782609 31.3748667,4.47204969 31.2985906,4.59627329 L31.2985906,5.71428571 C31.3494413,5.83850932 31.476568,5.9378882 31.62912,6.03726708 C31.7816721,6.13664596 32.0105001,6.21118012 32.3156042,6.26086957 L33.0275136,6.38509317 C33.9682511,6.55900621 34.7564366,6.7826087 35.4174953,7.00621118 C36.0785541,7.22981366 36.6124862,7.47826087 37.044717,7.7515528 C37.4769477,8.02484472 37.8329024,8.27329193 38.0871558,8.54658385 C38.3414092,8.81987578 38.5448119,9.06832298 38.6973639,9.34161491 L38.6973639,13.6397516 C38.5193865,13.9130435 38.2905585,14.2111801 37.9854544,14.5838509 C37.6803504,14.931677 37.273545,15.2795031 36.7904636,15.5776398 C36.3073822,15.9006211 35.6971741,16.1490683 34.9852646,16.3726708 C34.2733552,16.5962733 33.434319,16.6956522 32.4681562,16.6956522 C31.5019933,16.6956522 30.6629572,16.5962733 29.9510477,16.3726708 C29.2391383,16.1490683 28.6289302,15.9006211 28.1458488,15.5776398 C27.637342,15.2546584 27.255962,14.931677 26.9508579,14.5838509 C26.6457539,14.2360248 26.4169258,13.9130435 26.2643738,13.6397516 L26.2643738,11.1304348 Z"></path>
                            <polygon points="43.4010514 4.34782609 40.2991602 4.34782609 40.2991602 0.596273292 51.7405621 0.596273292 51.7405621 4.34782609 48.6895216 4.34782609 48.6895216 16.3229814 43.4010514 16.3229814"></polygon>
                            <polygon points="53.4186344 0.596273292 63.6141948 0.596273292 63.6141948 4.34782609 58.7071046 4.34782609 58.7071046 6.45962733 63.2836654 6.45962733 63.2836654 10.2111801 58.7071046 10.2111801 58.7071046 12.5714286 63.7158961 12.5714286 63.7158961 16.3229814 53.4186344 16.3229814"></polygon>
                            <path d="M71.3434974,11.1552795 L70.8095654,11.1552795 L70.8095654,16.3229814 L65.5210951,16.3229814 L65.5210951,0.596273292 L73.1486964,0.596273292 C74.2165606,0.596273292 75.2081488,0.819875776 76.0726102,1.29192547 C76.9624971,1.76397516 77.6489812,2.43478261 78.1829133,3.27950311 L78.1829133,8.42236025 C77.7252572,9.2173913 77.0896238,9.83850932 76.3268636,10.310559 L78.4117413,13.5900621 L78.4117413,16.2981366 L73.9877326,16.2981366 L71.3434974,11.1552795 Z M71.9791309,7.65217391 C72.6401897,7.65217391 73.0469951,7.47826087 73.2249724,7.13043478 L73.2249724,4.86956522 C73.0469951,4.52173913 72.6147643,4.34782609 71.9791309,4.34782609 L70.8349907,4.34782609 L70.8349907,7.65217391 L71.9791309,7.65217391 Z"></path>
                            <polygon points="79.8864109 3.95031056 79.8864109 0.546583851 83.5730849 0.546583851 83.5730849 3.92546584 83.0391528 6.7826087 80.3949176 6.7826087"></polygon>
                            <path d="M85.0731798,11.1304348 L90.1582473,11.1304348 L90.1582473,12.2981366 C90.3362247,12.6459627 90.7176047,12.8198758 91.3023875,12.8198758 C91.8363196,12.8198758 92.2176997,12.6459627 92.4465277,12.2981366 L92.4465277,11.0062112 C92.319401,10.757764 91.9888716,10.5838509 91.4295142,10.4596273 L90.6921794,10.3354037 C89.7514419,10.1614907 88.9632564,9.96273292 88.327623,9.73913043 C87.6919895,9.51552795 87.1326321,9.26708075 86.7004014,8.99378882 C86.2681706,8.72049689 85.9122159,8.47204969 85.6579625,8.19875776 C85.4037092,7.92546584 85.2003065,7.67701863 85.0477544,7.40372671 L85.0477544,3.27950311 C85.1748811,3.0310559 85.4037092,2.73291925 85.7088132,2.36024845 C86.0139173,2.01242236 86.4207227,1.66459627 86.9038041,1.36645963 C87.4123108,1.04347826 88.0225189,0.770186335 88.7344284,0.546583851 C89.4463378,0.322981366 90.285374,0.198757764 91.2515368,0.198757764 C92.2176997,0.198757764 93.0567358,0.322981366 93.7686452,0.546583851 C94.4805547,0.770186335 95.0907628,1.04347826 95.5992696,1.36645963 C96.1077763,1.68944099 96.5145817,2.01242236 96.8196858,2.36024845 C97.1247898,2.70807453 97.3536179,3.00621118 97.4807445,3.27950311 L97.4807445,5.68944099 L92.395677,5.68944099 L92.395677,4.62111801 C92.243125,4.27329193 91.8617449,4.09937888 91.2515368,4.09937888 C90.9464328,4.09937888 90.6921794,4.14906832 90.514202,4.2484472 C90.3107993,4.34782609 90.1836726,4.47204969 90.1073966,4.59627329 L90.1073966,5.71428571 C90.1582473,5.83850932 90.285374,5.9378882 90.437926,6.03726708 C90.590478,6.13664596 90.8193061,6.21118012 91.1244101,6.26086957 L91.8363196,6.38509317 C92.7770571,6.55900621 93.5652425,6.7826087 94.2263013,7.00621118 C94.8873601,7.22981366 95.4212922,7.47826087 95.8535229,7.7515528 C96.2857537,8.02484472 96.6417084,8.27329193 96.8959618,8.54658385 C97.1502152,8.81987578 97.3536179,9.06832298 97.5061699,9.34161491 L97.5061699,13.6397516 C97.3281925,13.9130435 97.0993645,14.2111801 96.7942604,14.5838509 C96.4891564,14.931677 96.082351,15.2795031 95.5992696,15.5776398 C95.1161881,15.9006211 94.50598,16.1490683 93.7940706,16.3726708 C93.0821611,16.5962733 92.243125,16.6956522 91.2769622,16.6956522 C90.3107993,16.6956522 89.4717632,16.5962733 88.7598537,16.3726708 C88.0479443,16.1490683 87.4377362,15.9006211 86.9546548,15.5776398 C86.446148,15.2546584 86.0647679,14.931677 85.7596639,14.5838509 C85.4545598,14.2360248 85.2257318,13.9130435 85.0731798,13.6397516 L85.0731798,11.1304348 Z"></path>
                        </g>
                        <g transform="translate(0.000000, 17.639752)" id="Shape">
                            <polygon points="0.228828039 0.49689441 3.55954727 0.49689441 3.55954727 6.68322981 6.71228914 6.68322981 6.71228914 0.49689441 10.0430084 0.49689441 10.0430084 16.5217391 6.71228914 16.5217391 6.71228914 9.86335404 3.55954727 9.86335404 3.55954727 16.5217391 0.228828039 16.5217391"></polygon>
                            <path d="M11.822782,3.65217391 C11.9499087,3.27950311 12.1278861,2.9068323 12.3821394,2.48447205 C12.6363928,2.0621118 12.9414969,1.68944099 13.3228769,1.34161491 C13.704257,0.99378882 14.1619131,0.720496894 14.7212705,0.472049689 C15.2552026,0.248447205 15.890836,0.124223602 16.6027455,0.124223602 C17.3146549,0.124223602 17.9502884,0.248447205 18.4842205,0.472049689 C19.0181526,0.695652174 19.4758086,0.99378882 19.882614,1.34161491 C20.2639941,1.68944099 20.5945235,2.0621118 20.8233515,2.48447205 C21.0776049,2.9068323 21.2555823,3.27950311 21.382709,3.65217391 L21.382709,13.3664596 C21.2555823,13.7391304 21.0776049,14.1118012 20.8233515,14.5341615 C20.5690982,14.9565217 20.2639941,15.3291925 19.882614,15.6770186 C19.501234,16.0248447 19.0435779,16.2981366 18.4842205,16.5465839 C17.9502884,16.7701863 17.3146549,16.8944099 16.6027455,16.8944099 C15.890836,16.8944099 15.2552026,16.7701863 14.7212705,16.5465839 C14.1873384,16.3229814 13.7296823,16.0248447 13.3228769,15.6770186 C12.9414969,15.3291925 12.6109675,14.9565217 12.3821394,14.5341615 C12.1278861,14.1118012 11.9499087,13.7391304 11.822782,13.3664596 L11.822782,3.65217391 Z M18.0265644,4.44720497 C17.924863,4.17391304 17.772311,3.92546584 17.5180576,3.72670807 C17.2638043,3.52795031 16.9587002,3.42857143 16.5773201,3.42857143 C16.1959401,3.42857143 15.890836,3.52795031 15.6365827,3.72670807 C15.3823293,3.92546584 15.2297773,4.17391304 15.1280759,4.44720497 L15.1280759,12.5465839 C15.2297773,12.8198758 15.3823293,13.068323 15.6365827,13.2670807 C15.890836,13.4658385 16.1959401,13.5652174 16.5773201,13.5652174 C16.9587002,13.5652174 17.2638043,13.4658385 17.5180576,13.2670807 C17.772311,13.068323 17.924863,12.8198758 18.0265644,12.5465839 L18.0265644,4.44720497 Z"></path>
                            <polygon points="23.1116319 0.49689441 26.4423512 0.49689441 26.4423512 13.3416149 29.9256224 13.3416149 29.9256224 16.5217391 23.0862066 16.5217391 23.0862066 0.49689441"></polygon>
                            <polygon points="31.476568 0.49689441 34.8072872 0.49689441 34.8072872 13.3416149 38.2905585 13.3416149 38.2905585 16.5217391 31.4511427 16.5217391 31.4511427 0.49689441"></polygon>
                            <polygon points="40.9856443 9.98757764 38.0108798 2.83229814 38.0108798 0.49689441 41.036495 0.49689441 42.7145672 5.56521739 43.0450966 5.56521739 44.7485943 0.49689441 47.4691054 0.49689441 47.4691054 2.83229814 44.3163635 10.4347826 44.3163635 16.5217391 40.9856443 16.5217391"></polygon>
                            <polygon points="48.8420736 2.83229814 48.8420736 0.49689441 52.0456662 0.49689441 53.2152317 10.6832298 53.5457611 10.6832298 55.1475574 0.49689441 58.0206205 0.49689441 59.6478421 10.6832298 59.9783715 10.6832298 61.147937 0.49689441 64.3261043 0.49689441 64.3261043 2.83229814 62.3175026 16.5217391 58.0460459 16.5217391 56.6222269 8.62111801 56.2916976 8.62111801 54.893304 16.5217391 50.8506753 16.5217391"></polygon>
                            <path d="M65.8007738,3.65217391 C65.9279005,3.27950311 66.1058779,2.9068323 66.3601313,2.48447205 C66.6143846,2.0621118 66.9194887,1.68944099 67.3008688,1.34161491 C67.6822488,0.99378882 68.1399049,0.720496894 68.6992623,0.472049689 C69.2331944,0.248447205 69.8688279,0.124223602 70.5807373,0.124223602 C71.2926468,0.124223602 71.9282802,0.248447205 72.4622123,0.472049689 C72.9961444,0.695652174 73.4538005,0.99378882 73.8606059,1.34161491 C74.2419859,1.68944099 74.5725153,2.0621118 74.8013434,2.48447205 C75.0555967,2.9068323 75.2335741,3.27950311 75.3607008,3.65217391 L75.3607008,13.3664596 C75.2335741,13.7391304 75.0555967,14.1118012 74.8013434,14.5341615 C74.54709,14.9565217 74.2419859,15.3291925 73.8606059,15.6770186 C73.4792258,16.0248447 73.0215697,16.2981366 72.4622123,16.5465839 C71.9282802,16.7701863 71.2926468,16.8944099 70.5807373,16.8944099 C69.8688279,16.8944099 69.2331944,16.7701863 68.6992623,16.5465839 C68.1653302,16.3229814 67.7076742,16.0248447 67.3008688,15.6770186 C66.9194887,15.3291925 66.5889593,14.9565217 66.3601313,14.5341615 C66.1058779,14.1118012 65.9279005,13.7391304 65.8007738,13.3664596 L65.8007738,3.65217391 Z M72.0299816,4.44720497 C71.9282802,4.17391304 71.7757282,3.92546584 71.5214748,3.72670807 C71.2672214,3.52795031 70.9621174,3.42857143 70.5807373,3.42857143 C70.1993572,3.42857143 69.8942532,3.52795031 69.6399998,3.72670807 C69.3857464,3.92546584 69.2331944,4.17391304 69.1314931,4.44720497 L69.1314931,12.5465839 C69.2331944,12.8198758 69.3857464,13.068323 69.6399998,13.2670807 C69.8942532,13.4658385 70.1993572,13.5652174 70.5807373,13.5652174 C70.9621174,13.5652174 71.2672214,13.4658385 71.5214748,13.2670807 C71.7757282,13.068323 71.9282802,12.8198758 72.0299816,12.5465839 L72.0299816,4.44720497 Z"></path>
                            <path d="M76.9879224,3.65217391 C77.1150491,3.27950311 77.2930265,2.9068323 77.5472798,2.48447205 C77.8015332,2.0621118 78.1066373,1.68944099 78.4880173,1.34161491 C78.8693974,0.99378882 79.3270535,0.720496894 79.8864109,0.472049689 C80.420343,0.248447205 81.0559764,0.124223602 81.7678859,0.124223602 C82.4797953,0.124223602 83.1154288,0.248447205 83.6493609,0.472049689 C84.183293,0.695652174 84.640949,0.99378882 85.0477544,1.34161491 C85.4291345,1.68944099 85.7596639,2.0621118 85.9884919,2.48447205 C86.2427453,2.9068323 86.4207227,3.27950311 86.5478494,3.65217391 L86.5478494,13.3664596 C86.4207227,13.7391304 86.2427453,14.1118012 85.9884919,14.5341615 C85.7342386,14.9565217 85.4291345,15.3291925 85.0477544,15.6770186 C84.6663744,16.0248447 84.2087183,16.2981366 83.6493609,16.5465839 C83.1154288,16.7701863 82.4797953,16.8944099 81.7678859,16.8944099 C81.0559764,16.8944099 80.420343,16.7701863 79.8864109,16.5465839 C79.3524788,16.3229814 78.8948227,16.0248447 78.4880173,15.6770186 C78.1066373,15.3291925 77.7761079,14.9565217 77.5472798,14.5341615 C77.2930265,14.1118012 77.1150491,13.7391304 76.9879224,13.3664596 L76.9879224,3.65217391 Z M83.1917048,4.44720497 C83.0900034,4.17391304 82.9374514,3.92546584 82.683198,3.72670807 C82.4289447,3.52795031 82.1238406,3.42857143 81.7424605,3.42857143 C81.3610805,3.42857143 81.0559764,3.52795031 80.801723,3.72670807 C80.5474697,3.92546584 80.3949176,4.17391304 80.2932163,4.44720497 L80.2932163,12.5465839 C80.3949176,12.8198758 80.5474697,13.068323 80.801723,13.2670807 C81.0559764,13.4658385 81.3610805,13.5652174 81.7424605,13.5652174 C82.1238406,13.5652174 82.4289447,13.4658385 82.683198,13.2670807 C82.9374514,13.068323 83.0900034,12.8198758 83.1917048,12.5465839 L83.1917048,4.44720497 Z"></path>
                            <path d="M88.2767723,0.49689441 L93.6923692,0.49689441 C94.2517267,0.49689441 94.7602334,0.596273292 95.1924642,0.795031056 C95.6246949,0.99378882 96.0315003,1.24223602 96.3620297,1.51552795 C96.6925591,1.8136646 96.9722378,2.13664596 97.2010658,2.53416149 C97.4298939,2.9068323 97.6078712,3.27950311 97.7349979,3.67701863 L97.7349979,13.3913043 C97.6078712,13.7639752 97.4298939,14.1614907 97.2010658,14.5341615 C96.9722378,14.9068323 96.6925591,15.2546584 96.3620297,15.552795 C96.0315003,15.8509317 95.6501202,16.0993789 95.1924642,16.2732919 C94.7348081,16.4720497 94.2517267,16.5714286 93.6923692,16.5714286 L88.2767723,16.5714286 L88.2767723,0.49689441 Z M92.9804598,13.3416149 C93.3618398,13.3416149 93.6669439,13.242236 93.8957719,13.0434783 C94.1246,12.8447205 94.3025773,12.621118 94.4042787,12.3478261 L94.4042787,4.64596273 C94.3025773,4.37267081 94.1500253,4.14906832 93.8957719,3.95031056 C93.6669439,3.7515528 93.3364145,3.65217391 92.9804598,3.65217391 L91.6074915,3.65217391 L91.6074915,13.3167702 L92.9804598,13.3167702 L92.9804598,13.3416149 Z"></path>
                        </g>
                    </g>
                    <g fill-rule="nonzero">
                        <g id="Shape">
                            <path d="M20.7725009,8.02484472 L23.7472654,16.5962733 L33.358043,15.4534161 L25.5778897,21.9130435 L28.5526542,30.484472 L20.7725009,25.8881988 L12.9923475,32.3478261 L15.967112,23.0559006 L8.18695872,18.4596273 L17.7977364,17.3167702 L20.7725009,8.02484472 Z M20.7725009,2.68322981 L19.1707046,7.70186335 L16.5773201,15.8012422 L8.18695872,16.8198758 L2.9747645,17.4409938 L7.16994522,19.9254658 L13.9839357,23.9254658 L11.3905513,32.0248447 L9.78875499,37.0434783 L13.9839357,33.5652174 L20.7725009,27.9254658 L27.561066,31.9254658 L31.7562467,34.4099379 L30.1544505,29.7639752 L27.561066,22.2857143 L34.3496312,16.6459627 L38.5702372,13.1677019 L33.358043,13.7888199 L24.9676816,14.8074534 L22.3742971,7.32919255 L20.7725009,2.68322981 Z" fill="#FFFFFF"></path>
                            <polygon fill="#D50032" points="25.5778897 21.9130435 28.5526542 30.484472 20.7725009 25.8881988 12.9923475 32.3478261 15.967112 23.0559006 8.18695872 18.4596273 17.7977364 17.3167702 20.7725009 8.02484472 23.7472654 16.5962733 33.358043 15.4534161"></polygon>
                            <path d="M27.561066,22.2857143 L30.1544505,29.7639752 L31.7562467,34.4099379 L27.561066,31.9254658 L20.7725009,27.9254658 L13.9839357,33.5652174 L9.78875499,37.068323 L11.3905513,32.0496894 L13.9839357,23.9254658 L7.19537055,19.9254658 L3.00018984,17.4409938 L8.21238406,16.8198758 L16.6027455,15.8012422 L19.1707046,7.70186335 L20.7725009,2.68322981 L22.3742971,7.32919255 L24.9676816,14.8074534 L33.358043,13.7888199 L38.5702372,13.1677019 L34.3750565,16.6708075 L27.561066,22.2857143 Z M41.341599,13.1677019 L40.6551149,11.2049689 C40.5025629,10.7826087 40.0703321,10.5341615 39.6381014,10.5838509 L33.3834683,11.3291925 L26.8237312,12.1242236 L24.7897042,6.28571429 L22.9082292,0.869565217 C22.7811025,0.49689441 22.3997225,0.223602484 21.9929171,0.223602484 L19.7046367,0.223602484 C19.2978313,0.223602484 18.9164512,0.49689441 18.7893245,0.869565217 L16.7552975,7.22981366 L14.7212705,13.5652174 L8.16153339,14.3602484 L1.72892296,15.1304348 C1.3475429,15.1801242 1.04243884,15.4285714 0.940737493,15.7763975 L0.203402701,18.0621118 C0.0762760129,18.484472 0.254253376,18.931677 0.610208104,19.1304348 L5.6698503,22.1118012 L10.9583205,25.242236 L8.92429351,31.5776398 L6.96654252,37.689441 C6.83941583,38.1118012 7.01739319,38.5590062 7.37334792,38.757764 L9.12769622,39.7763975 C9.48365094,39.9751553 9.94130702,39.9503106 10.2464111,39.6770186 L15.4077546,35.378882 L20.6962248,30.9813665 L25.9846951,34.1118012 L31.0951879,37.1180124 C31.4511427,37.3167702 31.9087987,37.2919255 32.2139028,37.0186335 L34.1716538,35.4037267 C34.4767579,35.1552795 34.5784592,34.757764 34.4513325,34.3850932 L32.4935815,28.6956522 L30.4595545,22.8571429 L35.8497261,18.484472 L41.0619203,14.1614907 C41.341599,13.9130435 41.4687257,13.515528 41.341599,13.1677019 Z" fill="#3A5DAE"></path>
                        </g>
                        <path d="M18.7893245,0.869565217 L16.7552975,7.22981366 L14.7212705,13.5900621 L16.5518948,15.8509317 L18.6621978,9.29192547 L20.7725009,2.73291925 L19.9843154,0.447204969 C19.9334647,0.322981366 19.8317634,0.248447205 19.7046367,0.248447205 C19.2978313,0.198757764 18.9164512,0.472049689 18.7893245,0.869565217 Z" id="Shape" fill="url(#linearGradient-1)"></path>
                        <path d="M3.00018984,17.4409938 L0.508506753,17.7391304 C0.406805402,17.7639752 0.305104052,17.8385093 0.279678714,17.9378882 L0.228828039,18.0621118 C0.101701351,18.484472 0.279678714,18.9068323 0.635633441,19.1304348 C5.33932091,21.9378882 10.8820445,25.1925466 11.0091712,25.2173913 L13.9839357,23.9254658 L3.00018984,17.4409938 Z" id="Shape" fill="url(#linearGradient-2)"></path>
                        <path d="M9.78875499,37.068323 L9.02599487,39.4534161 C8.97514419,39.5776398 9.02599487,39.7018634 9.15312155,39.7763975 L9.17854689,39.8012422 C9.53450162,40.0248447 9.9921577,39.9751553 10.2972617,39.7267081 L20.7725009,31.0310559 L20.7725009,27.9751553 L9.78875499,37.068323 Z" id="Shape" fill="url(#linearGradient-3)"></path>
                        <path d="M34.5530339,34.4099379 L30.5612559,22.8819876 L27.5864913,22.2857143 L31.7816721,34.4099379 L33.7648484,35.5776398 C33.8665497,35.6521739 33.9936764,35.6273292 34.0953778,35.552795 L34.2733552,35.4037267 C34.5530339,35.1801242 34.6801606,34.7826087 34.5530339,34.4099379 Z" id="Shape" fill="url(#linearGradient-4)"></path>
                        <path d="M39.6381014,10.5590062 L26.8237312,12.0993789 L24.9931069,14.8074534 L38.5956626,13.1677019 L40.6042642,11.5031056 C40.7059656,11.4285714 40.7313909,11.3043478 40.6805402,11.2049689 C40.5025629,10.7826087 40.0957575,10.5093168 39.6381014,10.5590062 Z" id="Shape" fill="url(#linearGradient-5)"></path>
                    </g>
                </g>
            </g>
        </g>
    </g>
</svg>